<?xml version="1.0" encoding="utf-8"?>
<!-- Generator: Adobe Illustrator 18.0.0, SVG Export Plug-In . SVG Version: 6.00 Build 0)  -->
<!DOCTYPE svg PUBLIC "-//W3C//DTD SVG 1.1//EN" "http://www.w3.org/Graphics/SVG/1.1/DTD/svg11.dtd">
<svg version="1.1" id="Layer_1" xmlns="http://www.w3.org/2000/svg" xmlns:xlink="http://www.w3.org/1999/xlink" x="0px" y="0px"
	 width="841.9px" height="595.3px" viewBox="0 0 841.9 595.3" enable-background="new 0 0 841.9 595.3" xml:space="preserve">
<g>
	<rect y="2.5" fill="#FFFFFF" width="841.9" height="592.7"/>
	<g>
		<g>
			<path fill="#D1D3D4" d="M106.7,554.2L106.7,554.2c0,5.4,4.4,9.7,9.7,9.7h609c5.4,0,9.7-4.4,9.7-9.7l0,0c0-5.4-4.4-9.7-9.7-9.7
				h-609C111.1,544.4,106.7,548.8,106.7,554.2z"/>
			<g>
				<g>
					<g>
						<g>
							<polygon fill="#C6936A" points="383.6,421.5 401.8,554.9 389.9,554.9 360.4,421.5 							"/>
							<polygon fill="#C6936A" points="321.4,421.5 330.9,554.9 318.9,554.9 298.2,421.5 							"/>
						</g>
					</g>
					<g>
						<g>
							<path fill="#D14E37" d="M302.7,222.6c0-36.2-12.2-61-25.6-60.6H172.3l24,218.4h93.8h15.7h8
								C360.3,341.8,302.7,276.3,302.7,222.6z"/>
							<path fill="#F15B40" d="M167.6,163.2c15.1-7.1,30.3,19,30.3,59.4c0,50.4,50.8,111.2,18.4,150.5c-3.9,4.7-9.7,7.3-15.8,7.3h0
								c-9.3,0-17.4-6.2-19.9-15.1c-5.7-20.9-15.6-63.3-21.5-125.7C153.7,181.2,157,168.2,167.6,163.2z"/>
						</g>
						<g>
							<path fill="#D14E37" d="M365.7,386.9c-12.3,0-32.3-15-47.9-15c-8.6,0-91.4,0-107,0c-3.6,0-6.5,2.7-8.8,6.8
								c-9.6,17.1-0.9,42.9,14.2,42.9h83.8h5h86.3c17.9,0,18.9-39.2,1.1-40.8C382.7,379.9,371.8,386.9,365.7,386.9z"/>
							<path fill="#F15B40" d="M216.1,421.5c-15.1,0-23.8-25.9-14.2-42.9c2.3-4.1,5.2-6.8,8.8-6.8c15.6,0,35.7,15,47.9,15
								c6.1,0,17-6.9,26.6-6.1c17.8,1.6,16.8,40.8-1.1,40.8H216.1z"/>
						</g>
					</g>
					<g>
						<g>
							<polygon fill="#E9AB7C" points="216.1,421.5 197.9,554.9 209.9,554.9 239.3,421.5 							"/>
							<polygon fill="#E9AB7C" points="278.3,421.5 268.8,554.9 280.8,554.9 301.5,421.5 							"/>
						</g>
					</g>
				</g>
				<g>
					<path fill="#FCC293" d="M459,237.5l8.2-4.7c0,0,5.8-19.4,13.3-25.9c7.5-6.5,25.6-9.9,26.7-6.3c1.2,3.6-13.7,5.8-17.3,7.9
						c-3.6,2.1-6.3,7.3-6.3,7.3s8.9-3.3,14.4-4c7.6-0.9,17.9-0.9,16.1,4.9c-0.6,2-11.3,0.6-13.8,1.1c-2.4,0.5-11.4,4.9-11.4,4.9
						s8.3-3.1,16.1-0.6c7.8,2.5,13.6,6.2,11.2,9.4c-2.1,2.7-10.8-3.6-12.7-3.7c-1.9-0.1-9.4,1.3-9.4,1.3s7.1,2.3,10.6,4.2
						s6.1,4.7,3,6.2c-3.1,1.5-10.6-3.2-16.4-4.6c0,0-0.5,9.5-13.2,9l-11.9,6.3L459,237.5z"/>
					<path fill="#E6E7E8" d="M463.6,232.1l8.1,17.9c0,0-51,41.8-81,41.8l7.4-29.2L463.6,232.1z"/>
					<path fill="#E6E7E8" d="M350.3,195.5l52,73l-11.7,23.3c0,0-32-15.8-48.1-37.1C342.5,254.7,339.1,227.9,350.3,195.5z"/>
					<path fill="#221E1F" d="M263.7,334c0,0-11.8,47.8,12.2,57.8c24,10,123.4,7.5,123.4,7.5s-4.3,83.8-2,122.5h23.3
						c0,0,27.6-111.3,27.6-137.3c0-20.5-101.8-34.7-101.8-34.7V334H263.7z"/>
					<path fill="#F1F2F2" d="M265.2,181.3l-40.2,23.3c0,0,19.1,61,20.1,84.7c1,23.7,0,44.7,0,44.7h100.9c0,0,7.9-64.2,8.4-86.8
						c0.5-22.6-4.2-51.7-4.2-51.7l-30.1-11.4L265.2,181.3z"/>
					<polygon fill="#BCBEC0" points="320.2,180.5 321.2,199.1 308.9,188 					"/>
					<polygon fill="#F1F2F2" points="303.8,195.5 320.2,180.5 310.9,172.2 					"/>
					<polygon fill="#FCC293" points="270.9,130.9 273.2,173.8 303.8,195.5 311.4,176.6 308.9,151.7 					"/>
					<path fill="#F79972" d="M310.7,170.3l-1.8-18.6l-38-20.8l0,0.2C271,133.6,273.9,169.3,310.7,170.3z"/>
					<path fill="#FCC293" d="M268.2,101.5c0,0-3-26.7,25.8-30c27.9-3.2,42.6,10.5,39.5,34.7c-3.2,24.2,2.1,56.3-24.7,56.3
						C286.1,162.5,268.2,153.6,268.2,101.5z"/>
					<path fill="#3E170A" d="M303.8,101.8c0,0-0.4-7.2-4.5-7.2c-4.1,0-16.5,2.2-16.8,9C282.4,103.6,294.3,101.1,303.8,101.8z"/>
					<path fill="#3E170A" d="M272.2,121.7c0,0,3.2-23.1,13.2-37.6c0,0,31.8-2.5,53.7,19.5c0,0,7.2-32.9-18.7-41.3S275.8,71,275.8,71
						s0.5-7.2-3.7-6.1s0,8.7,0,8.7s-4.6-2.6-6.9,0c-2.3,2.6,4.1,4.7,4.1,4.7s-8.3,1.7-11.2,16.3c-2.9,14.5,1.4,42.7,13.1,44.9
						C271.3,139.5,270.9,133.2,272.2,121.7z"/>
					<circle fill="#3E170A" cx="296.5" cy="114.6" r="3.4"/>
					<path fill="#3E170A" d="M317.3,101.8c0,0,0.3-7.2,3.3-7.2c3,0,12,2.2,12.2,9C332.7,103.6,324.1,101.1,317.3,101.8z"/>
					<circle fill="#3E170A" cx="324.5" cy="114.6" r="3.4"/>
					<path fill="#F79972" d="M315.3,113.4c0,0-0.5,5.8,2,10.6c3,5.7-5.9,6.8-5.9,6.8s11.1,0,9.7-4.8
						C320.2,122.9,317.7,122.8,315.3,113.4z"/>
					<path fill="#FFFFFF" d="M320.2,136.5l-22.7-2.2c0,0,2.6,11.6,12.6,11.6S320.2,136.5,320.2,136.5z"/>
					<g>
						<path fill="#FCC293" d="M272.2,121.7c0,0-5.5-9.9-12.1-4.3c-6.6,5.5-2,24.3,13.3,16.8L272.2,121.7z"/>
						<path fill="#F79972" d="M261.1,125.9c0,0,0.8-5.5,4.1-5.1s5.7,9.9,2.9,10.9c-2.8,1-5.3-4-1.9-6.2c0,0-0.1-2.3-2.1-2.5
							C262.1,122.8,261.1,125.9,261.1,125.9z"/>
					</g>
					<polygon fill="#BCBEC0" points="296.5,184.1 303.8,195.5 290.8,189.8 					"/>
					<path fill="#F15B40" d="M295.5,188c0,0,8.5,3.4,18.4-1.7c0,0,1.5,6.7-3.1,17.2l-10.8,1.1c0,0-5.6-3.4-8.8-12.9L295.5,188z"/>
					<polygon fill="#E6E7E8" points="269.4,170.3 296.5,184.1 290.8,205.8 265.2,181.3 					"/>
					<path fill="#F15B40" d="M299.9,204.5c0,0,0.1,62-3.4,103.8l15.5,9.2l12.5-10.6c0,0-5.5-54.2-13.8-103.3L299.9,204.5z"/>
					<path fill="#221E1F" d="M245.2,334c0,0-11.8,47.8,12.2,57.8c24,10,54.5,7.5,54.5,7.5s-5.3,83.8-2.9,122.5h24.2
						c0,0,28.4-116.8,27.6-137.3c-0.8-20.5-32.8-34.7-32.8-34.7V334H245.2z"/>
					<path fill="#6E2C13" d="M308.9,521.8l-5.5,33.1h42.7c0,0-1.4-20.5-13-33.1H308.9z"/>
					<path fill="#6E2C13" d="M397.4,521.8l-6.3,33.1h90.7c0,0-2.4-17.4-15-22.9c-12.6-5.5-46.2-10.3-46.2-10.3H397.4z"/>
					<g>
						<path fill="#6E2C13" d="M346.4,348.2V334h-18.5h-64.2h-18.5c0,0-1.5,6-2.3,14.2H346.4z"/>
						<rect x="304.1" y="331.6" fill="#E8B321" width="32.4" height="18.9"/>
					</g>
					<path fill="#FCC293" d="M342.5,302.8l9.4-1.3c0,0,12.7-15.8,22.1-19c9.4-3.2,27.4,0.4,27.1,4.2s-14.8,0.2-19,0.8
						s-8.6,4.4-8.6,4.4s9.5,0.3,14.8,1.8c7.4,2.1,16.9,5.9,13.1,10.6c-1.3,1.6-10.7-3.8-13.2-4.2c-2.5-0.5-12.4,0.3-12.4,0.3
						s8.9,0.2,15.2,5.5s10.3,10.9,6.8,12.9c-3,1.7-8.6-7.4-10.3-8.2c-1.7-0.8-9.2-2.4-9.2-2.4s5.7,4.8,8.3,7.9s3.8,6.6,0.4,6.8
						c-3.4,0.2-8.6-6.9-13.5-10.5c0,0-4,8.7-15.7,3.4l-13.4,1.3L342.5,302.8z"/>
					<path fill="#E6E7E8" d="M225.1,204.6c0,0-5.7,32.1-5.2,49.4c0.5,17.4,9.4,66.5,9.4,66.5L350,319v-19.6l-88.9-8.4
						C261.1,291.1,250.3,241.4,225.1,204.6z"/>
				</g>
				<g>
					<g>
						<rect x="173.5" y="324.5" fill="#E9AB7C" width="496.1" height="14.2"/>
						<rect x="173.5" y="324.5" fill="#C6936A" width="152.6" height="14.2"/>
					</g>
					<g>
						<g>
							<polygon fill="#8CA0AA" points="201.3,338.7 163.2,554.9 179.8,554.9 217.9,338.7 							"/>
							<polygon fill="#5D7683" points="210.7,338.7 172.5,554.9 179.8,554.9 217.9,338.7 							"/>
						</g>
						<g>
							<polygon fill="#8CA0AA" points="354.5,338.7 316.4,554.9 332.9,554.9 371.1,338.7 							"/>
							<polygon fill="#5D7683" points="363.8,338.7 325.7,554.9 332.9,554.9 371.1,338.7 							"/>
						</g>
					</g>
					<g>
						<g>
							<polygon fill="#8CA0AA" points="647.2,338.7 685.3,554.9 668.8,554.9 630.6,338.7 							"/>
							<polygon fill="#5D7683" points="637.9,338.7 676,554.9 668.8,554.9 630.6,338.7 							"/>
						</g>
						<g>
							<polygon fill="#8CA0AA" points="494.1,338.7 532.2,554.9 515.6,554.9 477.5,338.7 							"/>
							<polygon fill="#5D7683" points="484.7,338.7 522.9,554.9 515.6,554.9 477.5,338.7 							"/>
						</g>
					</g>
				</g>
				<g>
					<g>
						<path fill="#F1F2F2" d="M544.7,317.4H363.8v6.3h174.5C541.8,323.7,544.7,320.9,544.7,317.4L544.7,317.4z"/>
						<path fill="#E6E7E8" d="M414.7,317.4h-50.9l0,0c0,3.5,2.8,6.3,6.3,6.3h38.3C411.9,323.7,414.7,320.9,414.7,317.4L414.7,317.4z
							"/>
					</g>
					<g>
						<path fill="#F1F2F2" d="M432.7,215.6l-17.9,101.8h129.4c3.5,0,6.8-2.8,7.4-6.3l15.7-89.2c0.6-3.5-1.7-6.3-5.2-6.3H432.7z"/>
						<path fill="#E6E7E8" d="M432.7,215.6l-17.9,101.8l0,0c3.5,0,6.8-2.8,7.4-6.3l15.7-89.2C438.5,218.5,436.2,215.6,432.7,215.6
							L432.7,215.6z"/>
						<path fill="#221E1F" d="M494.7,257.8c-4.8,0-9.4,3.9-10.2,8.7c-0.8,4.8,2.4,8.7,7.1,8.7c4.8,0,9.4-3.9,10.2-8.7
							C502.7,261.7,499.5,257.8,494.7,257.8z"/>
					</g>
				</g>
			</g>
		</g>
		<g>
			<g>
				<g>
					<circle fill="#1C75BC" cx="434.6" cy="94.6" r="63.2"/>
					<polygon fill="#1C75BC" points="431.2,122.9 354.9,140.6 408.4,83.3 					"/>
				</g>
			</g>
			<g>
				<text transform="matrix(1 0 0 1 394.5 97.3537)" fill="#FFFFFF" font-family="'Arial-BoldMT'" font-size="39.9186">24/7</text>
				<text transform="matrix(1 0 0 1 394.4995 118.1413)" fill="#FFFFFF" font-family="'Arial-BoldMT'" font-size="22.8605">service</text>
			</g>
		</g>
	</g>
</g>
</svg>
